<svg width="24" height="24" viewBox="0 0 24 24" fill="none" xmlns="http://www.w3.org/2000/svg">
    <path
        id="favicon-path"
        d="M12.3785 2C16.2799 2.0001 15.793 5.9958 15.3053 7.99414C16.7687 6.99515 19.8498 5.92943 21.6451 8.99414C23.1079 11.4917 19.6947 14.3221 17.7437 14.9883C19.2069 15.9875 21.3523 18.5847 18.231 20.9824C15.1095 23.3803 12.7031 20.983 11.8902 19.4844C10.9146 20.983 8.28152 23.3801 5.55039 20.9824C2.81905 18.5846 4.41233 16.3199 5.55039 15.4873C3.76201 14.9878 0.672689 12.0909 2.62363 8.49414C3.85202 6.22947 7.01339 6.66254 7.98886 7.49512C7.6637 5.66344 8.47661 2 12.3785 2ZM12.3121 9.49316C8.42708 9.49327 7.3044 16.1247 12.3121 15.4375C15.6222 14.9833 15.6814 9.49316 12.3121 9.49316Z"
        fill="#111"
    />
</svg>